<svg xmlns:svg="http://www.w3.org/2000/svg" xmlns="http://www.w3.org/2000/svg" version="1.1" x="0" y="0" viewBox="0 0 1920 1080" width="1920" height="1080">
	<style>
		path {
			fill: #448ccb;
		}
	</style>
	<path d="m197.5 439.3c0-20.8 3.9-41.6 11.7-59.8 7.8-18.2 19.5-35.1 33.8-49.4 14.3-14.3 29.9-23.4 49.4-31.2 18.2-7.8 39-11.7 59.8-11.7 20.8 0 40.3 3.9 59.8 13 18.2 7.8 35.1 19.5 49.4 33.8 14.3 14.3 24.7 29.9 33.8 49.4 7.8 18.2 11.7 37.7 11.7 58.5 0 20.8-3.9 40.3-11.7 58.5-7.8 18.2-19.5 35.1-33.8 49.4l-156 178.1 166.4 0c9.1 0 16.9 3.9 23.4 10.4 6.5 6.5 9.1 14.3 9.1 23.4 0 9.1-2.6 16.9-9.1 23.4-6.5 6.5-14.3 9.1-23.4 9.1l-241.8 0c-5.2 0-9.1-1.3-13-2.6-3.9-1.3-7.8-3.9-10.4-6.5-2.6-2.6-5.2-6.5-6.5-10.4-1.3-3.9-2.6-7.8-2.6-13 0-9.1 2.6-16.9 9.1-23.4l205.4-235.3c16.9-16.9 26-37.7 26-62.4 0-11.7-2.6-23.4-6.5-33.8-5.2-10.4-10.4-19.5-19.5-27.3-9.1-7.8-16.9-15.6-27.3-19.5-10.4-5.2-22.1-6.5-33.8-6.5-11.7 0-23.4 2.6-33.8 6.5-10.4 3.9-19.5 10.4-27.3 18.2-7.8 7.8-14.3 16.9-19.5 27.3-5.2 10.4-6.5 22.1-6.5 33.8 0 9.1-2.6 16.9-9.1 23.4-6.5 6.5-14.3 9.1-23.4 9.1-9.1 0-16.9-2.6-23.4-9.1-7.8-6.5-10.4-14.3-10.4-23.4zm586.3-1.3c41.6 0 79.3 13 111.8 39l0-158.6c0-9.1 2.6-16.9 9.1-23.4 5.2-6.5 13-9.1 23.4-9.1 9.1 0 16.9 2.6 23.4 9.1 6.5 6.5 9.1 14.3 9.1 23.4l0 297.7c0 49.4-16.9 91-52 126.1-35.1 35.1-76.7 52-126.1 52-49.4 0-91-16.9-126.1-52-35.1-35.1-52-76.7-52-126.1 0-49.4 16.9-91 52-126.1 36.4-33.8 78-52 127.4-52zm110.5 178.1c0-15.6-2.6-29.9-9.1-42.9-5.2-13-14.3-24.7-23.4-35.1-10.4-10.4-22.1-18.2-35.1-24.7-13-6.5-28.6-9.1-42.9-9.1-15.6 0-29.9 2.6-44.2 9.1-13 6.5-24.7 14.3-35.1 23.4-10.4 10.4-18.2 22.1-23.4 35.1-5.2 13-9.1 27.3-9.1 42.9 0 15.6 2.6 29.9 9.1 42.9 5.2 13 14.3 24.7 23.4 35.1 10.4 10.4 22.1 18.2 35.1 23.4 13 6.5 28.6 9.1 44.2 9.1 15.6 0 29.9-2.6 42.9-9.1 13-6.5 24.7-14.3 35.1-24.7 10.4-10.4 18.2-22.1 23.4-35.1 6.5-10.4 9.1-24.7 9.1-40.3zm473.2 0c0 49.4-16.9 91-52 126.1-35.1 35.1-76.7 52-126.1 52-49.4 0-91-16.9-126.1-52-35.1-35.1-52-76.7-52-126.1 0-49.4 16.9-91 52-126.1 35.1-35.1 76.7-52 126.1-52 48.1 0 91 16.9 126.1 52 16.9 16.9 29.9 36.4 39 57.2 7.8 22.1 13 44.2 13 68.9zm-178.1-111.8c-15.6 0-29.9 2.6-44.2 9.1-13 6.5-24.7 14.3-35.1 23.4-10.4 10.4-18.2 22.1-23.4 35.1-5.2 13-9.1 27.3-9.1 42.9 0 15.6 2.6 29.9 9.1 42.9 5.2 13 14.3 24.7 23.4 35.1 10.4 10.4 22.1 18.2 35.1 23.4 13 6.5 28.6 9.1 44.2 9.1 15.6 0 29.9-2.6 42.9-9.1 13-6.5 24.7-14.3 35.1-24.7 10.4-10.4 18.2-22.1 23.4-35.1 5.2-13 9.1-27.3 9.1-42.9 0-15.6-2.6-29.9-9.1-42.9-5.2-13-14.3-24.7-23.4-35.1-10.4-10.4-22.1-18.2-35.1-24.7-13-3.9-27.3-6.5-42.9-6.5zm499.2 188.5c9.1 0 16.9 2.6 23.4 9.1 6.5 6.5 9.1 14.3 9.1 23.4 0 9.1-3.9 16.9-10.4 24.7-32.5 28.6-71.5 42.9-115.7 42.9-49.4 0-91-16.9-126.1-52-35.1-35.1-52-76.7-52-126.1 0-49.4 16.9-91 52-126.1 35.1-35.1 76.7-52 126.1-52 44.2 0 83.2 14.3 115.7 42.9 7.8 6.5 11.7 15.6 11.7 24.7 0 9.1-2.6 16.9-9.1 23.4-6.5 6.5-14.3 9.1-23.4 9.1-7.8 0-15.6-2.6-22.1-7.8-10.4-9.1-22.1-15.6-33.8-20.8-11.7-5.2-24.7-6.5-39-6.5-15.6 0-29.9 2.6-42.9 9.1-13 5.2-26 14.3-35.1 23.4-10.4 10.4-18.2 22.1-23.4 35.1-5.2 13-9.1 28.6-9.1 42.9 0 15.6 2.6 29.9 9.1 42.9 5.2 13 14.3 24.7 23.4 35.1 10.4 10.4 22.1 18.2 35.1 23.4 13 5.2 28.6 9.1 42.9 9.1 14.3 0 27.3-2.6 39-6.5 11.7-3.9 23.4-11.7 33.8-20.8 5.2 0 13-2.6 20.8-2.6z" fill="#448ccb"/>
</svg>
