<svg xmlns:svg="http://www.w3.org/2000/svg" xmlns="http://www.w3.org/2000/svg" version="1.1" x="0" y="0" viewBox="152.2 698.3 1920 1080" enable-background="new 152.2 698.3 590.7 105" xml:space="preserve" width="1920" height="1080">
    <g transform="translate(9.8022869,36.773838)">
        <polygon transform="matrix(2.8,0,0,2.8,-150.74228,-900.71385)" points="544.8 730.9 569.5 730.9 569.5 799.1 600.9 799.1 600.9 730.9 625.8 730.9 625.8 702.3 544.8 702.3 "/>
        <polygon transform="matrix(2.8,0,0,2.8,-150.74228,-900.71385)" points="208.5 799.1 208.5 770.5 183.6 770.5 183.6 702.3 152.2 702.3 152.2 799.1 "/>
        <path d="m514.3 1203.5c0-1.1 0-1.4 0-2 0-1.1 0-1.4 0-2l0 3.9zm127.1-144.8c-88.5 0-127.7 51.8-128 142.8 0.6 91 39.8 142.8 128 142.8 88.2 0 127.7-51.8 128-142.8-0.3-91-39.5-142.8-128-142.8zm0 209.4c-31.1 0-41.2-22.4-41.2-67.2 0-44.8 10.1-67.2 41.2-67.2 31.4 0 41.2 22.7 41.2 67.2 0 44.5-9.5 67.2-41.2 67.2zm128.2-66.9c0 1.1 0 1.4 0 2l0-3.9c0 0.6 0 1.7 0 2z"/>
        <polygon transform="matrix(2.8,0,0,2.8,-150.74228,-900.71385)" points="395.2 803.3 439.3 702.3 408.7 702.3 395.2 733.3 381.6 702.3 351.2 702.3 "/>
        <polygon transform="matrix(2.8,0,0,2.8,-150.74228,-900.71385)" points="472.9 733.3 483.6 757.8 462 757.8 449.5 786.7 496.3 786.7 501.8 799.1 532.2 799.1 488.1 698.3 "/>
        <polygon transform="matrix(2.8,0,0,2.8,-150.74228,-900.71385)" points="666.2 733.3 677.1 757.8 655.5 757.8 643.1 786.7 689.6 786.7 695.1 799.1 725.7 799.1 681.6 698.3 "/>
        <path d="m1909.5 1097.6-5.6-11.2-3.9 0 0 11.2-5.3 0 0-27.7 10.9 0c5.6 0 9 3.9 9 8.4 0 3.9-2.5 6.4-5 7.3l6.2 12-6.2 0 0 0zm-4.5-22.7-5 0 0 7.3 5 0c2.5 0 3.9-1.7 3.9-3.6 0-2.2-1.4-3.6-3.9-3.6zM1903.3 1110c-14.3 0-26-11.8-26-26 0-14.3 11.8-26 26-26 14.3 0 26 11.5 26 26-0.3 14.3-11.8 26-26 26zm0-48.4c-12.6 0-22.4 10.1-22.4 22.4 0 12.3 10.1 22.4 22.4 22.4 12.6 0 22.4-10.1 22.4-22.4 0-12.3-10.1-22.4-22.4-22.4z"/>
    </g>
</svg>
